<?xml version="1.0" encoding="utf-8"?>
<!-- Generator: Adobe Illustrator 16.0.0, SVG Export Plug-In . SVG Version: 6.00 Build 0)  -->
<!DOCTYPE svg PUBLIC "-//W3C//DTD SVG 1.1//EN" "http://www.w3.org/Graphics/SVG/1.1/DTD/svg11.dtd">
<svg version="1.1" id="Layer_1" xmlns="http://www.w3.org/2000/svg" xmlns:xlink="http://www.w3.org/1999/xlink" x="0px" y="0px"
	 width="500px" height="200px" viewBox="0 0 500 200" enable-background="new 0 0 500 200" xml:space="preserve">
<g>
	<g id="THE_CORD">
		<path d="M258.264,65.044c2.604,0,5.211,0,7.814,0c5.578,0.735,10.803,1.823,15.031,3.907c-0.2,5.609,0.398,12.024-0.303,17.134
			c-3.531,1.127-3.359-2.621-3.906-4.208c-2.366-6.864-6.994-12.986-15.933-12.625c-19.235,0.777-21.137,36.728-12.924,52.304
			c3.447,6.539,11.653,12.133,20.741,7.516c4.874-2.478,6.859-7.189,8.717-12.326c0.532-1.47,0.561-5.322,4.207-4.507
			c1.094,4.812-0.32,12.292-0.6,17.732c-6.707,4.388-15.936,5.466-24.95,4.511c-7.792-0.826-15.649-3.608-20.44-9.62
			c-7.193-9.022-8.502-26.244-4.809-38.776C234.438,74.111,244.395,65.949,258.264,65.044z"/>
		<path d="M313.271,65.044c2.506,0,5.012,0,7.516,0c8.1,1.531,12.357,2.947,16.533,6.913c10.896,10.342,13.217,39.433,2.104,53.507
			c-7.66,9.704-25.177,12.258-37.273,6.312c-15.938-7.834-19.847-37.738-10.219-54.106
			C295.917,70.889,303.527,66.087,313.271,65.044z M309.363,71.656c-11.442,8.831-10.715,52.54,2.408,58.015
			c3.138,1.312,8.156,0.881,10.217,0c7.961-3.396,9.918-16.198,10.222-28.854c0.37-15.471-2.92-32.98-16.833-31.265
			C312.965,69.85,310.734,70.6,309.363,71.656z"/>
		<path d="M28.009,66.847c17.334,0,34.669,0,52.003,0c-0.201,5.812,0.399,12.426-0.301,17.736c-0.56-0.159-1.393,0.205-2.104,0
			c-2.273-0.656-2.511-7.854-4.208-10.22c-2.662-3.709-5.535-3.247-12.625-3.307c0,12.395,0,28.811,0,42.984
			c0,4.097-1.016,11.604,0.601,13.828c1.74,2.393,6.271,0.714,8.116,2.104c0,0.804,0,1.604,0,2.404
			c-9.136,1.196-21.508,0.601-30.661,0.302c0-0.803,0-1.603,0-2.403c1.524-2.241,5.154,0.208,7.515-1.805
			c1.976-1.685,1.202-9.205,1.202-13.227c0-14.934,0-31.351,0-43.887c-4.491-0.686-8.363-0.469-10.822,1.202
			c-3.882,2.636-3.511,8.136-6.011,12.024c-0.902,0-1.804,0-2.706,0C28.009,78.67,28.009,72.76,28.009,66.847z"/>
		<path d="M84.221,66.847c9.018,0,18.036,0,27.053,0c0,0.902,0,1.805,0,2.705c-1.822,1.884-4.78,0.115-6.312,2.104
			c-2.772,3.601,0.853,18.664-0.601,23.75c7.314,0.701,15.932,0.1,23.747,0.301c-0.345-7.872,0.727-17.161-0.601-24.049
			c-1.337-1.465-4.73-0.878-6.613-1.804c0-1.002,0-2.003,0-3.006c9.218,0,18.437,0,27.655,0c0,0.902,0,1.805,0,2.705
			c-0.731,1.206-5.058,0.635-6.312,2.104c-1.616,1.896-0.902,9.503-0.902,13.83c0,10.228,0,18.958,0,29.156
			c0,8.082-1.788,16.596,7.215,14.729c0,1.204,0,2.405,0,3.609c-9.219,0-18.437,0-27.655,0c0-1.204,0-2.405,0-3.609
			c3.033,0.129,5.577-0.233,6.914-1.801c0.685-8.435,0.113-18.124,0.3-27.055c-7.214-0.7-15.731-0.099-23.446-0.299
			c-0.526,3.167-0.301,8.549-0.301,14.125c0,8.181-2.071,16.725,6.914,15.029c0,1.204,0,2.405,0,3.609c-9.118,0-18.236,0-27.354,0
			c0-1.204,0-2.405,0-3.609c2.629,0.124,4.704-0.305,6.313-1.201c1.193-17.449,0.606-38.262,0.3-56.209
			c-1.218-1.588-4.168-1.443-6.613-1.804C84.11,69.142,83.533,67.363,84.221,66.847z"/>
		<path d="M154.56,66.847c15.43,0,30.861,0,46.292,0c-0.2,5.611,0.399,12.025-0.301,17.136c-3.688,1.319-3.807-3.103-4.81-5.711
			c-0.771-2.012-1.633-4.177-2.706-5.111c-4.234-3.69-10.472-1.72-17.735-1.804c-1.369,7.148-0.226,16.808-0.601,24.95
			c10.007,0.754,16.734,0.193,17.133-8.717c0.802,0,1.604,0,2.405,0c1.181,6.018,0.609,15.733,0.301,22.542
			c-0.802,0-1.603,0-2.405,0c-2.039-2.692-1.023-6.215-3.607-8.117c-3.16-2.32-8.041-0.67-13.527-1.199
			c-0.542,3.894-0.301,8.316-0.301,13.524c0,3.862-0.898,10.883,0.902,12.926c2.688,3.049,13.765,1.869,17.134,0.3
			c5.432-2.529,6.191-8.85,8.417-13.827c1.002,0,2.003,0,3.006,0c-0.6,6.313-1.05,12.777-1.503,19.237c-16.132,0-32.264,0-48.396,0
			c0-1.203,0-2.404,0-3.607c8.537,2.353,7.215-6.769,7.215-13.827c0-14.227,0.467-32.066-0.602-43.584
			c-1.14-1.666-4.134-1.477-6.613-1.804C154.45,69.142,153.871,67.363,154.56,66.847z"/>
		<path d="M349.945,66.847c22.769,1.146,52.336-6.593,49.297,19.239c-0.923,7.84-6.588,11.67-14.43,13.226
			c4.971,2.348,7.527,2.958,10.221,6.915c5.295,7.776,1.74,22.034,12.324,23.445c0,1.104,0,2.204,0,3.31
			c-7.409-0.076-12.203,0.417-15.631-1.204c-8.586-4.057-5.748-17.398-9.317-24.947c-1.923-4.062-5.72-5.243-12.324-4.81
			c0.354,8.562-0.737,18.571,0.599,26.149c1.558,1.05,3.877,1.336,6.614,1.201c0,1.204,0,2.405,0,3.608c-9.219,0-18.437,0-27.655,0
			c0-1.203,0-2.404,0-3.608c8.707,1.93,7.215-6.075,7.215-14.428c0-10.067,0-18.958,0-29.458c0-4.24,0.681-12.025-0.901-13.83
			c-1.172-1.334-5.033-1.236-6.312-1.502C349.835,69.142,349.257,67.363,349.945,66.847z M370.986,71.356
			c-2.031,7.087-0.354,17.881-0.901,26.453C391.531,103.5,390.785,65.604,370.986,71.356z"/>
		<path d="M410.665,66.847c21.694,0.337,45.396-3.043,55.01,9.02c7.574,9.501,7.76,26.354,3.606,38.174
			c-7.186,20.447-30.386,20.386-58.915,18.638c0-0.901,0-1.804,0-2.706c1.145-1.137,5.061-0.312,6.312-1.803
			c1.475-1.753,0.903-9.022,0.903-13.527c0-9.816,0-18.517,0-28.855c0-4.073,0.769-11.689-0.604-13.83
			c-1.075-1.684-5.471-1.321-6.609-2.104c0-0.7,0-1.401,0-2.104C410.339,67.321,410.313,66.898,410.665,66.847z M430.805,77.069
			c-0.06,11.125,0,25.5,0,36.068c0,4.531-1.011,11.791,0.603,14.13c2.034,2.949,11.942,1.635,15.329,0
			c12.815-6.187,14.382-42.123,3.006-52.304c-3.298-2.952-10.6-5.393-16.533-3.606C429.961,72.333,430.821,73.985,430.805,77.069z"
			/>
	</g>
</g>
</svg>
